<svg width="969" height="456" viewBox="0 0 969 456" fill="none" xmlns="http://www.w3.org/2000/svg">
<g clip-path="url(#clip0_1275_6274)">
<rect width="969" height="456" fill="url(#paint0_linear_1275_6274)"/>
<g clip-path="url(#clip1_1275_6274)">
<path d="M646.792 122.854V150.544H483.652C441.452 150.544 407.242 184.764 407.242 226.964C407.242 239.454 410.232 251.234 415.542 261.634L325.702 100.404V100.394C334.512 79.6544 355.112 65.0244 378.962 65.0244H437.922C437.502 67.5244 437.282 70.1044 437.282 72.7244C437.282 98.5044 458.182 119.414 483.962 119.414C509.742 119.414 530.642 98.5044 530.642 72.7244C530.642 70.1044 530.422 67.5244 530.002 65.0244H588.962C616.582 65.0244 639.852 84.6544 645.482 110.654C646.342 114.594 646.792 118.674 646.792 122.854Z" fill="#ED332E" stroke="white" stroke-width="2" stroke-linecap="round" stroke-linejoin="round"/>
<path d="M693.472 225.715C693.472 251.495 672.572 272.395 646.792 272.395V332.845C646.792 364.655 620.762 390.675 588.962 390.675H530.642C530.642 372.735 520.522 357.165 505.682 349.345L550.772 263.535L551.152 262.815C556.852 252.125 560.072 239.925 560.072 226.965C560.072 184.765 525.862 150.545 483.652 150.545H646.792V179.035C672.572 179.035 693.472 199.935 693.472 225.715Z" fill="#FDBE10" stroke="white" stroke-width="2" stroke-miterlimit="10" stroke-linejoin="round"/>
<path d="M550.772 263.534L505.682 349.344C499.192 345.924 491.802 343.994 483.962 343.994C458.182 343.994 437.282 364.894 437.282 390.674H378.962C347.162 390.674 321.132 364.654 321.132 332.844V272.394C346.922 272.394 367.822 251.494 367.822 225.714C367.822 199.934 346.922 179.034 321.132 179.034V122.854C321.132 114.904 322.762 107.314 325.702 100.404L415.542 261.634L415.602 261.754C416.432 263.384 417.322 264.974 418.272 266.534C431.662 288.624 455.932 303.384 483.652 303.384C512.612 303.384 537.812 287.274 550.772 263.534Z" fill="#03C7B6" stroke="white" stroke-width="2" stroke-miterlimit="10" stroke-linejoin="round"/>
<path d="M483.652 150.545C441.452 150.545 407.242 184.765 407.242 226.965C407.242 239.455 410.232 251.235 415.542 261.635L415.602 261.755C416.432 263.385 417.322 264.975 418.272 266.535C431.662 288.625 455.932 303.385 483.652 303.385C512.612 303.385 537.812 287.275 550.772 263.535L551.152 262.815C556.852 252.125 560.072 239.925 560.072 226.965C560.072 184.765 525.862 150.545 483.652 150.545ZM484.652 283.775C453.132 283.775 427.582 258.215 427.582 226.695C427.582 195.165 453.132 169.615 484.652 169.615C516.182 169.615 541.732 195.165 541.732 226.695C541.732 258.215 516.182 283.775 484.652 283.775Z" fill="white" stroke="white" stroke-width="2" stroke-miterlimit="10"/>
<path d="M541.732 226.694C541.732 258.214 516.182 283.774 484.652 283.774C453.132 283.774 427.582 258.214 427.582 226.694C427.582 195.164 453.132 169.614 484.652 169.614C516.182 169.614 541.732 195.164 541.732 226.694Z" fill="#3F51B5" stroke="white" stroke-miterlimit="10"/>
<path d="M191.143 267.855C212.122 267.855 229.129 250.848 229.129 229.869C229.129 208.89 212.122 191.883 191.143 191.883C170.164 191.883 153.157 208.89 153.157 229.869C153.157 250.848 170.164 267.855 191.143 267.855Z" fill="white" stroke="#C1D0EB" stroke-width="2" stroke-miterlimit="10"/>
<path d="M191.175 219.328L178.782 227.234L191.175 235.14L178.782 243.046L166.388 235.098L178.782 227.191L166.388 219.328L178.782 211.422L191.175 219.328ZM178.717 245.589L191.111 237.683L203.504 245.589L191.111 253.495L178.717 245.589ZM191.175 235.098L203.568 227.191L191.175 219.328L203.504 211.422L215.898 219.328L203.504 227.234L215.898 235.14L203.504 243.046L191.175 235.098Z" fill="#0061FF"/>
<path d="M349.803 168.322H293.771C287.938 168.322 283.209 173.051 283.209 178.885V219.306C283.209 225.14 278.48 229.869 272.646 229.869H239.917" stroke="#647BDC" stroke-miterlimit="10" stroke-linecap="round" stroke-linejoin="round"/>
<path d="M240.995 232.625C242.483 232.625 243.69 231.418 243.69 229.93C243.69 228.441 242.483 227.234 240.995 227.234C239.506 227.234 238.299 228.441 238.299 229.93C238.299 231.418 239.506 232.625 240.995 232.625Z" fill="#647BDC"/>
<path d="M766.79 390.742C787.77 390.742 804.777 373.735 804.777 352.756C804.777 331.777 787.77 314.77 766.79 314.77C745.811 314.77 728.804 331.777 728.804 352.756C728.804 373.735 745.811 390.742 766.79 390.742Z" fill="white" stroke="#C1D0EB" stroke-width="2" stroke-miterlimit="10"/>
<path d="M599.833 291.148H655.865C661.698 291.148 666.427 295.877 666.427 301.711V342.132C666.427 347.966 671.156 352.695 676.99 352.695H709.719" stroke="#647BDC" stroke-miterlimit="10" stroke-linecap="round" stroke-linejoin="round"/>
<path d="M708.641 355.451C710.13 355.451 711.337 354.244 711.337 352.756C711.337 351.267 710.13 350.061 708.641 350.061C707.153 350.061 705.946 351.267 705.946 352.756C705.946 354.244 707.153 355.451 708.641 355.451Z" fill="#647BDC"/>
<path d="M781.281 332.798H752.555C751.09 332.798 749.686 333.379 748.648 334.413C747.611 335.448 747.026 336.851 747.021 338.316V367.058C747.021 368.526 747.604 369.933 748.642 370.971C749.679 372.009 751.087 372.592 752.555 372.592H781.281C782.749 372.592 784.157 372.009 785.194 370.971C786.232 369.933 786.815 368.526 786.815 367.058V338.316C786.81 336.851 786.225 335.448 785.188 334.413C784.151 333.379 782.746 332.798 781.281 332.798ZM751.215 367.058V354.161H769.851V368.351H752.508C752.169 368.339 751.847 368.199 751.608 367.959C751.366 367.719 751.228 367.397 751.215 367.058ZM782.637 367.058C782.633 367.415 782.489 367.756 782.235 368.007C781.981 368.257 781.638 368.398 781.281 368.398H774.076V354.208H782.684L782.637 367.058ZM782.637 349.983H751.215V338.316C751.215 337.961 751.357 337.62 751.608 337.368C751.858 337.117 752.2 336.976 752.555 336.976H781.281C781.638 336.976 781.981 337.117 782.235 337.368C782.489 337.618 782.633 337.959 782.637 338.316V349.983Z" fill="url(#paint1_linear_1275_6274)"/>
<path d="M599.833 110.658H705.946" stroke="#647BDC" stroke-miterlimit="10" stroke-linecap="round" stroke-linejoin="round"/>
<path d="M708.641 113.353C710.13 113.353 711.337 112.147 711.337 110.658C711.337 109.17 710.13 107.963 708.641 107.963C707.153 107.963 705.946 109.17 705.946 110.658C705.946 112.147 707.153 113.353 708.641 113.353Z" fill="#647BDC"/>
<path d="M815.394 88.6316V135.767C815.394 140.204 811.793 143.794 807.367 143.794H754.903C750.466 143.794 746.876 140.204 746.876 135.767V73.0515C746.876 68.6146 750.466 65.0244 754.903 65.0244H796.371L815.394 88.6316Z" fill="white" stroke="#C1D0EB" stroke-width="2" stroke-miterlimit="10"/>
<path d="M815.394 88.6316H802.49C799.114 88.6316 796.371 85.8882 796.371 82.5125V65.0244L815.394 88.6316Z" fill="white" stroke="#C1D0EB" stroke-width="2" stroke-miterlimit="10" stroke-linecap="round" stroke-linejoin="round"/>
<path d="M801.197 98.967H761.073C759.595 98.967 758.397 97.7691 758.397 96.2915V95.6013C758.397 94.1236 759.595 92.9258 761.073 92.9258H801.197C802.675 92.9258 803.873 94.1236 803.873 95.6013V96.2915C803.873 97.7691 802.675 98.967 801.197 98.967Z" fill="#C1D0EB"/>
<path d="M801.197 113.607H761.073C759.595 113.607 758.397 112.409 758.397 110.931V110.241C758.397 108.763 759.595 107.565 761.073 107.565H801.197C802.675 107.565 803.873 108.763 803.873 110.241V110.931C803.873 112.409 802.675 113.607 801.197 113.607Z" fill="#C1D0EB"/>
<path d="M801.197 128.245H761.073C759.595 128.245 758.397 127.047 758.397 125.57V124.88C758.397 123.402 759.595 122.204 761.073 122.204H801.197C802.675 122.204 803.873 123.402 803.873 124.88V125.57C803.873 127.047 802.675 128.245 801.197 128.245Z" fill="#C1D0EB"/>
<path d="M798.516 143.794V148.186C798.516 152.465 795.05 155.931 790.771 155.931H737.742C733.463 155.931 729.997 152.465 729.997 148.186V84.906C729.997 80.6271 733.463 77.1611 737.742 77.1611H746.876V135.767C746.876 140.204 750.466 143.794 754.903 143.794H798.516Z" fill="white" stroke="#C1D0EB" stroke-width="2" stroke-miterlimit="10"/>
<path d="M895.061 205.075H825.228V175.454H895.061V205.075Z" fill="#EAEEFB"/>
<path d="M834.089 247.389H764.256V217.769H834.089V247.389Z" fill="#EAEEFB"/>
<path d="M47.3069 41H117.14V70.6204H47.3069V41Z" fill="#EAEEFB"/>
<path d="M108.278 83.3145H178.111V112.935H108.278V83.3145Z" fill="#EAEEFB"/>
<path d="M108.276 409.834C108.276 409.834 64.4938 415.409 46.5767 389.221C46.5767 389.221 42.3191 382.799 48.2531 376.593C54.1872 370.387 26.4423 358.238 29.1923 346.897C31.9424 335.557 46.6497 345.138 41.8082 336.696C36.9668 328.254 30.4073 316.416 36.5709 312.869C46.9235 306.916 61.2989 341.651 65.1246 335.725C68.9502 329.8 76.125 326.779 79.7604 342.049C83.3957 357.32 83.2997 361.701 89.5266 361.31C95.7535 360.919 99.4903 369.671 100.725 385.458C102.435 407.294 108.275 409.827 108.275 409.827L108.276 409.834Z" fill="#647BDC"/>
<path d="M51.0304 337.158C51.0304 337.158 68.1003 393.312 108.278 409.841" stroke="white" stroke-linecap="round" stroke-linejoin="round"/>
<path d="M125.275 373.475C125.275 373.475 133.869 334.229 101.635 316.531C101.635 316.531 87.2734 351.38 125.275 373.475Z" fill="#C2D5FF"/>
<path d="M103.181 321.604L122.579 367.795" stroke="white" stroke-linecap="round" stroke-linejoin="round"/>
<path d="M860.206 414.407C860.206 414.407 936.049 396.924 940.3 325.814C940.3 325.814 867.387 329.577 860.206 414.407Z" fill="#FFBF04"/>
<path d="M932.69 332.726L867.908 404.964" stroke="white" stroke-linecap="round" stroke-linejoin="round"/>
<path d="M926.703 348.699L913.176 354.484" stroke="white" stroke-linecap="round" stroke-linejoin="round"/>
<path d="M916.91 369.312L894.488 375.33" stroke="white" stroke-linecap="round" stroke-linejoin="round"/>
<path d="M898.672 387.514L879.859 391.628" stroke="white" stroke-linecap="round" stroke-linejoin="round"/>
<path d="M917.758 340.073L913.476 354.154" stroke="white" stroke-linecap="round" stroke-linejoin="round"/>
<path d="M898.34 352.059L894.787 375.001" stroke="white" stroke-linecap="round" stroke-linejoin="round"/>
<path d="M882.211 372.163L880.154 391.312" stroke="white" stroke-linecap="round" stroke-linejoin="round"/>
<path d="M889.541 301.42C895.027 303.469 885.453 316.837 882.343 314.843C880.777 313.839 884.535 299.551 889.541 301.42Z" fill="#00C6B5"/>
<path d="M880.245 322.86C879.837 321.048 892.57 313.543 894.808 318.393C897.261 323.704 881.051 326.465 880.245 322.86Z" fill="#00C6B5"/>
<path d="M872.505 336.39C872.154 334.564 885.11 327.452 887.202 332.371C889.493 337.757 873.203 340.018 872.505 336.39Z" fill="#00C6B5"/>
<path d="M865.862 349.196C865.723 347.343 879.406 341.753 880.919 346.876C882.58 352.492 866.14 352.879 865.862 349.196Z" fill="#00C6B5"/>
<path d="M876.245 320.806C878.078 320.511 880.322 305.908 874.986 305.623C869.138 305.318 872.601 321.395 876.245 320.806Z" fill="#00C6B5"/>
<path d="M868.321 332.148C870.011 331.378 868.323 316.696 863.103 317.839C857.384 319.09 864.962 333.678 868.321 332.148Z" fill="#00C6B5"/>
<path d="M861.6 346.489C863.265 345.669 861.119 331.045 855.939 332.347C850.259 333.771 858.288 348.123 861.6 346.489Z" fill="#00C6B5"/>
<path d="M856.829 372.698C856.829 372.698 860.173 347.811 880.734 316.774" stroke="#00C6B5" stroke-linecap="round" stroke-linejoin="round"/>
<path d="M295.346 397.074L285.016 399.774C285.016 399.774 285.016 399.774 285.006 399.784L282.766 400.364C273.486 398.954 274.746 383.634 274.746 383.634L287.336 380.994L290.786 380.264C290.786 380.264 296.51 388.014 295.346 397.074Z" fill="#C1D0EB" stroke="white" stroke-miterlimit="10"/>
<path d="M377.212 329.674L377.252 296.244L390.342 327.334C390.342 327.334 384.252 328.304 377.212 329.674ZM409.572 329.384C406.522 316.144 399.772 289.514 392.392 278.454C382.382 263.444 363.852 260.614 363.852 260.614C373.752 272.824 355.202 285.604 355.202 285.604C355.202 276.864 350.432 274.484 347.822 273.824C346.992 273.584 346.162 273.584 346.162 273.584C341.412 273.784 335.712 280.854 335.712 280.854C335.202 267.464 345.732 262.914 346.442 262.614C345.652 262.734 332.822 264.894 323.462 273.834C315.502 281.434 310.972 301.244 310.972 301.244L312.862 301.214C313.162 301.214 313.542 301.304 313.962 301.444C316.262 302.234 317.972 304.174 318.662 306.504L320.412 312.414L331.042 348.454C331.282 349.284 332.042 349.844 332.902 349.844H348.602C353.542 347.904 356.672 346.754 357.032 346.614C352.332 346.634 348.112 344.324 348.112 344.324C342.362 349.434 340.472 343.974 340.472 343.974C333.712 347.414 333.122 343.264 333.122 343.264C326.132 342.794 332.292 334.144 335.732 332.344C339.162 330.544 340.942 333.034 340.942 333.034C344.782 331.904 347.792 332.354 349.742 332.984C352.302 333.824 354.992 334.164 357.682 334.164H359.192C361.582 337.474 362.842 341.094 362.852 345.044V345.184C362.852 346.194 362.772 347.204 362.602 348.254C367.172 348.694 371.312 348.944 375.062 349.034C386.832 349.334 394.782 348.124 400.142 346.374C407.202 344.064 411.232 336.624 409.572 329.384Z" fill="#647BDC"/>
<path d="M362.852 345.045C362.762 345.105 362.672 345.155 362.572 345.205H362.562C361.482 345.305 360.402 345.535 359.312 345.885L357.062 346.605C357.062 346.605 357.052 346.605 357.042 346.615H357.032C352.332 346.635 348.112 344.325 348.112 344.325C342.362 349.435 340.472 343.975 340.472 343.975C333.712 347.415 333.122 343.265 333.122 343.265C326.132 342.795 332.292 334.145 335.732 332.345C339.162 330.545 340.942 333.035 340.942 333.035C344.782 331.905 347.792 332.355 349.742 332.985C352.302 333.825 354.992 334.165 357.682 334.165H359.192C361.582 337.475 362.842 341.095 362.852 345.045Z" fill="#C1D0EB"/>
<path d="M375.872 243.535C371.302 251.555 366.082 255.765 361.892 257.975C357.322 260.375 353.972 260.405 353.972 260.405C361.722 248.905 351.082 228.005 351.082 228.005C332.902 235.615 321.472 233.615 321.472 233.615C321.472 233.615 322.262 258.925 339.472 261.365C332.952 265.095 318.062 262.965 318.062 262.965C323.362 255.185 321.532 242.155 320.282 236.135C319.682 233.255 319.462 230.295 319.812 227.385C322.842 201.685 348.192 203.745 348.192 203.745C348.192 203.745 343.902 198.655 346.682 196.475C349.472 194.305 351.622 204.325 351.622 204.325C351.622 204.325 355.772 197.215 358.332 199.535C360.572 201.575 355.332 205.145 355.332 205.145C368.252 206.655 374.722 227.185 376.912 235.955C377.552 238.525 377.182 241.245 375.872 243.535Z" fill="#312855"/>
<path d="M361.852 264.005C355.982 272.775 350.482 273.895 347.822 273.825C346.772 273.805 346.162 273.585 346.162 273.585L346.482 262.605L346.522 261.155C343.912 261.625 341.572 261.665 339.472 261.365C322.262 258.925 321.472 233.615 321.472 233.615C321.472 233.615 332.902 235.615 351.082 228.005C351.082 228.005 361.722 248.905 353.972 260.405C353.972 260.405 357.322 260.375 361.892 257.975L362.022 258.675L362.462 261.015C362.662 262.055 362.432 263.125 361.852 264.005Z" fill="#C1D0EB"/>
<path d="M346.482 262.604L346.162 273.584C341.412 273.784 335.712 280.854 335.712 280.854C335.202 267.464 345.732 262.914 346.442 262.615C346.472 262.604 346.482 262.604 346.482 262.604Z" fill="white"/>
<path d="M355.202 285.605C355.202 276.865 350.432 274.485 347.822 273.825C350.482 273.895 355.982 272.775 361.852 264.005C362.432 263.125 362.662 262.055 362.462 261.015L362.022 258.675C362.722 259.315 363.322 259.965 363.852 260.615C373.752 272.825 355.202 285.605 355.202 285.605Z" fill="white"/>
<path d="M335.709 254.437C335.709 254.437 339.811 255.941 342.135 252.25" stroke="#312855" stroke-miterlimit="10" stroke-linecap="round" stroke-linejoin="round"/>
<path d="M340.981 242.709C342.733 242.424 343.887 240.565 343.56 238.556C343.233 236.547 341.548 235.15 339.797 235.435C338.046 235.72 336.891 237.58 337.218 239.589C337.545 241.597 339.23 242.995 340.981 242.709Z" fill="white"/>
<path d="M327.964 244.992C329.715 244.707 330.87 242.847 330.543 240.838C330.216 238.829 328.531 237.432 326.779 237.717C325.028 238.002 323.874 239.862 324.201 241.871C324.528 243.88 326.213 245.277 327.964 244.992Z" fill="white"/>
<path d="M332.18 240.821C331.73 242.044 332.378 246.468 332.378 246.468C332.378 246.468 329.119 246.84 330.152 249.171C331.191 251.5 336.605 250.103 336.33 247.3C336.06 244.488 333.457 237.342 332.174 240.822L332.18 240.821Z" fill="#F54C55"/>
<path d="M340.295 242.287C341.349 242.115 342.045 240.995 341.848 239.785C341.651 238.576 340.636 237.734 339.581 237.906C338.526 238.078 337.831 239.198 338.028 240.407C338.225 241.617 339.24 242.459 340.295 242.287Z" fill="#312855"/>
<path d="M327.037 244.445C328.092 244.273 328.787 243.153 328.59 241.944C328.393 240.734 327.378 239.892 326.323 240.064C325.269 240.236 324.573 241.356 324.77 242.566C324.967 243.775 325.982 244.617 327.037 244.445Z" fill="#312855"/>
<path d="M335.128 235.002C335.128 235.002 337.922 231.674 343.278 232.683" stroke="#312855" stroke-miterlimit="10" stroke-linecap="round" stroke-linejoin="round"/>
<path d="M323.098 235.399C323.098 235.399 325.582 233.536 329.462 235.399" stroke="#312855" stroke-miterlimit="10" stroke-linecap="round" stroke-linejoin="round"/>
<path d="M359.192 334.165C363.162 332.615 370.602 330.965 377.212 329.675" stroke="#C2D5FF" stroke-miterlimit="10"/>
<path d="M362.562 345.205C360.812 346.235 358.882 346.605 357.042 346.615" stroke="black" stroke-miterlimit="10" stroke-linecap="round" stroke-linejoin="round"/>
<path d="M340.468 343.978C340.468 343.978 342.245 338.174 347.575 336.634" stroke="#312855" stroke-miterlimit="10" stroke-linecap="round" stroke-linejoin="round"/>
<path d="M333.123 343.268C333.123 343.268 334.189 337.108 339.165 335.449" stroke="#312855" stroke-miterlimit="10" stroke-linecap="round" stroke-linejoin="round"/>
<path d="M348.11 344.324C348.11 344.324 348.453 341.49 352.219 340.306" stroke="#312855" stroke-miterlimit="10" stroke-linecap="round" stroke-linejoin="round"/>
<path d="M326.28 281.916C326.28 281.916 319.377 302.881 320.407 312.412" stroke="#C2D5FF" stroke-miterlimit="10"/>
<path d="M379.172 352.835C377.912 351.415 376.532 350.135 375.062 349.035C371.312 348.945 367.172 348.695 362.602 348.255C362.772 347.205 362.852 346.195 362.852 345.185C362.762 345.185 362.662 345.195 362.572 345.205H362.562C361.482 345.305 360.402 345.535 359.312 345.885L357.062 346.605C357.062 346.605 357.052 346.605 357.042 346.615H357.032C356.672 346.755 353.542 347.905 348.602 349.845C344.542 351.435 339.252 353.545 333.282 356.045C333.192 356.085 333.102 356.125 333.002 356.165C316.952 362.895 296.042 372.365 280.602 381.895C280.602 381.895 278.882 392.735 285.162 398.705C285.882 399.395 286.702 400.015 287.642 400.545C287.642 400.545 294.122 398.435 303.222 395.405C314.762 391.565 330.512 386.255 342.632 381.885C343.402 381.615 344.152 381.345 344.892 381.075L357.902 384.535C357.902 384.535 357.912 384.535 357.942 384.545C358.702 384.625 370.802 386.075 374.642 389.515C374.692 389.555 374.742 389.595 374.792 389.645C375.372 390.135 375.762 390.685 375.932 391.295C377.322 392.585 376.932 395.215 375.902 397.175C374.702 399.455 364.602 407.375 357.902 406.975C352.822 407.885 350.162 403.805 350.162 403.805L337.232 394.305L334.052 401.625L310.212 396.825C311.242 397.315 358.032 419.755 377.212 400.545C394.452 383.295 387.662 362.445 379.172 352.835Z" fill="#312855"/>
<path d="M375.932 391.295C375.542 390.935 375.012 390.675 374.312 390.565C374.312 390.565 361.442 388.375 356.672 390.755C351.912 393.135 349.452 404.055 355.932 406.565C356.542 406.795 357.202 406.935 357.902 406.975C352.822 407.885 350.162 403.805 350.162 403.805C346.182 397.865 348.732 392.855 352.002 389.455C352.252 389.205 352.492 388.955 352.742 388.725C356.782 385.655 370.262 386.045 374.642 389.515C374.692 389.555 374.742 389.595 374.792 389.645C375.372 390.135 375.762 390.685 375.932 391.295Z" fill="#3F51B5"/>
<path d="M342.632 381.885L337.232 394.305L334.052 401.625L310.212 396.825L310.192 396.815L307.822 396.335L303.222 395.405C314.762 391.565 330.512 386.255 342.632 381.885Z" fill="#312855" stroke="#C2D5FF" stroke-miterlimit="10" stroke-linecap="round" stroke-linejoin="round"/>
<path d="M344.892 381.075C349.942 379.235 354.212 377.605 357.062 376.385" stroke="#C2D5FF" stroke-miterlimit="10" stroke-linecap="round" stroke-linejoin="round"/>
<path d="M312.862 301.215L310.972 301.245L238.832 302.215C237.052 302.215 236.102 304.095 236.862 306.635L250.172 351.705L250.922 354.255C251.262 356.385 252.302 357.165 253.492 357.165L329.082 356.165L312.862 301.215Z" fill="white" stroke="#C1D0EB" stroke-miterlimit="10"/>
<path d="M333.322 356.165H333.002C333.102 356.125 333.192 356.085 333.282 356.045L333.322 356.165Z" stroke="black" stroke-miterlimit="10" stroke-linecap="round" stroke-linejoin="round"/>
<path d="M348.602 349.845C344.542 351.435 339.252 353.545 333.282 356.045C333.192 356.085 333.102 356.125 333.002 356.165H329.082L312.862 301.215C313.162 301.215 313.542 301.305 313.962 301.445C316.262 302.235 317.972 304.175 318.662 306.505L320.412 312.415L331.042 348.455C331.282 349.285 332.042 349.845 332.902 349.845H348.602Z" fill="white" stroke="#C1D0EB" stroke-miterlimit="10"/>
<path d="M333.002 356.165C316.952 362.895 296.042 372.365 280.602 381.895L277.152 382.625C273.402 381.055 248.182 370.315 245.562 364.285C242.722 357.765 250.172 351.705 250.172 351.705L250.922 354.255C251.262 356.385 252.302 357.165 253.492 357.165L329.082 356.165H333.002Z" fill="#312855"/>
<path d="M374.642 389.515C370.262 386.045 356.782 385.655 352.742 388.725C355.472 386.145 358.412 384.675 358.412 384.675L357.942 384.545C358.702 384.625 370.802 386.075 374.642 389.515Z" fill="#647BDC"/>
<path d="M358.412 384.674C358.412 384.674 355.472 386.144 352.742 388.724C352.442 388.944 352.192 389.184 352.002 389.454C348.732 392.854 346.182 397.864 350.162 403.804L337.232 394.304L342.632 381.884C343.402 381.614 344.152 381.344 344.892 381.074L357.902 384.534C357.902 384.534 357.912 384.534 357.942 384.544L358.412 384.674Z" fill="#C1D0EB"/>
<path d="M285.006 399.783C284.956 399.893 284.436 400.973 282.876 402.133L282.866 402.143C282.666 402.293 282.456 402.443 282.226 402.583C281.016 403.353 279.326 404.123 277.006 404.623C270.486 406.043 243.836 402.073 240.146 397.813C236.556 393.673 237.876 382.783 244.396 380.803C245.136 380.583 246.096 380.443 247.216 380.373C256.016 379.843 275.599 383.454 275.599 383.454C275.599 383.454 275.545 396.396 282.8 399.806L285.006 399.783Z" fill="#647BDC"/>
<path d="M282.226 402.584C280.886 404.674 278.026 407.514 275.276 408.314C271.906 409.284 249.736 404.964 242.666 403.424C235.606 401.874 234.736 394.614 235.056 389.184C235.386 383.744 238.756 381.134 241.256 380.264C242.606 379.784 245.156 380.044 247.216 380.374C246.096 380.444 245.136 380.584 244.396 380.804C237.876 382.784 236.556 393.674 240.146 397.814C243.836 402.074 270.486 406.044 277.006 404.624C279.326 404.124 281.016 403.354 282.226 402.584Z" fill="#3F51B5"/>
<path d="M375.902 397.175C374.702 399.455 364.602 407.375 357.902 406.975C357.202 406.935 356.542 406.795 355.932 406.565C349.452 404.055 351.912 393.135 356.672 390.755C361.442 388.375 374.312 390.565 374.312 390.565C375.012 390.675 375.542 390.935 375.932 391.295C377.322 392.585 376.932 395.215 375.902 397.175Z" fill="#647BDC"/>
<path d="M347.823 275.962C347.823 275.962 337.288 294.218 337.235 315.346" stroke="black" stroke-miterlimit="10" stroke-linecap="round" stroke-linejoin="round"/>
<path d="M286.799 337.215C289.284 334.347 288.206 329.342 284.391 326.034C280.576 322.727 275.468 322.37 272.982 325.237C270.496 328.104 271.574 333.11 275.39 336.418C279.205 339.725 284.313 340.082 286.799 337.215Z" fill="#C1D0EB"/>
<path d="M303.222 395.404L344.892 381.074" stroke="#C2D5FF" stroke-miterlimit="10" stroke-linecap="round" stroke-linejoin="round"/>
<path d="M280.602 381.895C280.602 381.895 317.402 362.485 333.002 356.165" stroke="#C2D5FF" stroke-miterlimit="10" stroke-linecap="round" stroke-linejoin="round"/>
</g>
</g>
<defs>
<linearGradient id="paint0_linear_1275_6274" x1="484.5" y1="0" x2="484.5" y2="456" gradientUnits="userSpaceOnUse">
<stop stop-color="#BFC6F1"/>
<stop offset="1" stop-color="#BFC6F1" stop-opacity="0"/>
</linearGradient>
<linearGradient id="paint1_linear_1275_6274" x1="730.666" y1="316.453" x2="786.873" y2="372.644" gradientUnits="userSpaceOnUse">
<stop stop-color="#F7BE27"/>
<stop offset="1" stop-color="#F16858"/>
</linearGradient>
<clipPath id="clip0_1275_6274">
<rect width="969" height="456" fill="white"/>
</clipPath>
<clipPath id="clip1_1275_6274">
<rect width="911.3" height="373.408" fill="white" transform="translate(29 41)"/>
</clipPath>
</defs>
</svg>
